<svg width="30" height="20" viewBox="0 0 30 20" fill="none" xmlns="http://www.w3.org/2000/svg">
<path d="M30 19C30 19.5523 29.5523 20 29 20H11C10.4477 20 10 19.5523 10 19V17.6667C10 17.1144 10.4477 16.6667 11 16.6667H29C29.5523 16.6667 30 17.1144 30 17.6667V19ZM30 10.6667C30 11.219 29.5523 11.6667 29 11.6667H1C0.447716 11.6667 0 11.219 0 10.6667V9.33333C0 8.78105 0.447715 8.33333 1 8.33333H29C29.5523 8.33333 30 8.78105 30 9.33333V10.6667ZM30 2.33333C30 2.88562 29.5523 3.33333 29 3.33333H11C10.4477 3.33333 10 2.88562 10 2.33333V0.999999C10 0.447714 10.4477 0 11 0H29C29.5523 0 30 0.447715 30 1V2.33333Z" fill="white"/>
</svg>
