<svg width="19" height="16" viewBox="0 0 19 16" fill="none" xmlns="http://www.w3.org/2000/svg">
<path fill-rule="evenodd" clip-rule="evenodd" d="M2.34755 7.19998C2.34755 4.10719 4.85475 1.59999 7.94753 1.59999C11.0403 1.59999 13.5475 4.10719 13.5475 7.19998C13.5475 10.2928 11.0403 12.8 7.94753 12.8C4.85475 12.8 2.34755 10.2928 2.34755 7.19998ZM7.94753 0C3.9711 0 0.747559 3.22354 0.747559 7.19998C0.747559 11.1764 3.9711 14.4 7.94753 14.4C10.2094 14.4 12.2276 13.357 13.5476 11.7258C13.549 11.9286 13.6271 12.1309 13.7818 12.2856L17.2618 15.7656C17.5742 16.0781 18.0808 16.0781 18.3932 15.7656C18.7056 15.4532 18.7056 14.9467 18.3932 14.6343L14.9132 11.1543C14.6897 10.9308 14.3669 10.8672 14.0868 10.9635C14.7596 9.86834 15.1475 8.57946 15.1475 7.19998C15.1475 3.22354 11.924 0 7.94753 0Z" fill="white"/>
</svg>
